<svg xmlns="http://www.w3.org/2000/svg" viewBox="0 0 420 128" width="420" height="128" role="img" aria-label="OctoLink 章鱼物联">
  <defs>
    <linearGradient id="bg" x1="0" y1="0" x2="1" y2="1">
      <stop offset="0%" stop-color="#0EA5A4"/>
      <stop offset="100%" stop-color="#2563EB"/>
    </linearGradient>
    <linearGradient id="word" x1="0" y1="0" x2="1" y2="0">
      <stop offset="0%" stop-color="#0EA5A4"/>
      <stop offset="100%" stop-color="#2563EB"/>
    </linearGradient>
  </defs>
  <!-- Icon -->
  <g>
    <rect width="128" height="128" rx="28" fill="url(#bg)"/>
    <path d="M42 58 a22 24 0 0 1 44 0 v10 a22 16 0 0 1 -44 0 z" fill="#FFFFFF"/>
    <circle cx="56" cy="52" r="4" fill="#0F2A4A"/>
    <circle cx="72" cy="52" r="4" fill="#0F2A4A"/>
    <circle cx="57.3" cy="50.7" r="1.3" fill="#FFFFFF"/>
    <circle cx="73.3" cy="50.7" r="1.3" fill="#FFFFFF"/>
    <g fill="none" stroke="#FFFFFF" stroke-width="5" stroke-linecap="round">
      <path d="M48 70 C 40 80 52 86 44 95"/>
      <path d="M56 72 C 50 84 60 90 54 99"/>
      <path d="M64 73 C 62 86 66 92 64 102"/>
      <path d="M72 72 C 78 84 68 90 74 99"/>
      <path d="M80 70 C 88 80 76 86 84 95"/>
    </g>
    <g>
      <circle cx="44" cy="95" r="4.5" fill="#FFFFFF"/>
      <circle cx="54" cy="99" r="4.5" fill="#FFFFFF"/>
      <circle cx="64" cy="102" r="4.5" fill="#FFFFFF"/>
      <circle cx="74" cy="99" r="4.5" fill="#FFFFFF"/>
      <circle cx="84" cy="95" r="4.5" fill="#FFFFFF"/>
      <circle cx="44" cy="95" r="2" fill="#2563EB"/>
      <circle cx="54" cy="99" r="2" fill="#2563EB"/>
      <circle cx="64" cy="102" r="2" fill="#2563EB"/>
      <circle cx="74" cy="99" r="2" fill="#2563EB"/>
      <circle cx="84" cy="95" r="2" fill="#2563EB"/>
    </g>
  </g>
  <!-- Wordmark -->
  <text x="150" y="68" font-family="'Segoe UI','PingFang SC','Helvetica Neue',Arial,sans-serif" font-size="46" font-weight="700" fill="url(#word)">OctoLink</text>
  <text x="152" y="98" font-family="'PingFang SC','Microsoft YaHei',sans-serif" font-size="20" font-weight="400" letter-spacing="6" fill="#64748B">章鱼物联</text>
</svg>
